<svg xmlns="http://www.w3.org/2000/svg" viewBox="0 0 512 512" role="img" aria-labelledby="title desc">
  <title id="title">Planting the Bay icon</title>
  <desc id="desc">A premium church-planting monogram with Bay Area route line and sprout motif.</desc>
  <defs>
    <linearGradient id="bg" x1="96" y1="48" x2="420" y2="456" gradientUnits="userSpaceOnUse">
      <stop offset="0" stop-color="#fff8e8"/>
      <stop offset="0.48" stop-color="#dbeeff"/>
      <stop offset="1" stop-color="#f4dfad"/>
    </linearGradient>
    <linearGradient id="route" x1="138" y1="342" x2="370" y2="150" gradientUnits="userSpaceOnUse">
      <stop offset="0" stop-color="#21482d"/>
      <stop offset="0.55" stop-color="#6aa9c9"/>
      <stop offset="1" stop-color="#d6b66c"/>
    </linearGradient>
    <filter id="softShadow" x="-20%" y="-20%" width="140%" height="140%">
      <feDropShadow dx="0" dy="18" stdDeviation="18" flood-color="#10110d" flood-opacity="0.16"/>
    </filter>
  </defs>
  <rect width="512" height="512" rx="128" fill="#10110d"/><circle cx="132" cy="108" r="142" fill="#21482d" opacity="0.72"/><circle cx="390" cy="394" r="174" fill="#6aa9c9" opacity="0.22"/>
  <path d="M94 383C172 356 207 298 229 235c18-51 51-91 118-106 29-7 53-6 71-3" fill="none" stroke="#fff8e8" stroke-opacity="0.16" stroke-width="18" stroke-linecap="round"/>
  <path d="M116 361c63-20 100-64 124-118 28-63 71-101 154-111" fill="none" stroke="url(#route)" stroke-width="15" stroke-linecap="round" filter="url(#softShadow)"/>
  <circle cx="121" cy="360" r="15" fill="#21482d"/>
  <circle cx="244" cy="240" r="12" fill="#6aa9c9"/>
  <circle cx="394" cy="132" r="15" fill="#d6b66c"/>
  <g filter="url(#softShadow)">
    <path d="M191 335V177h78c38 0 64 22 64 56 0 20-9 36-25 46 24 8 38 26 38 52 0 38-30 64-75 64h-80zm50-94h25c13 0 22-8 22-20 0-13-9-20-23-20h-24v40zm0 111h30c15 0 25-9 25-23 0-15-10-23-25-23h-30v46z" fill="#fff8e8"/>
    <path d="M300 183c-31 2-50 18-58 48 24-7 47-18 58-48z" fill="#21482d"/>
    <path d="M244 233c-10-28-30-43-61-44 10 29 30 43 61 44z" fill="#6aa9c9"/>
  </g>
</svg>
