<svg xmlns="http://www.w3.org/2000/svg" viewBox="0 0 320 240" fill="none">
<rect width="320" height="240" fill="#F6F4EF"/>
<rect x="14" y="14" width="292" height="212" rx="2" fill="#fff" stroke="#111" stroke-width="3"/>
<rect x="28" y="28" width="264" height="96" fill="#EAF0DD"/>
<path d="M28 106C62 84 98 72 130 72C172 72 198 82 230 96C250 104 268 108 292 112V124H28V106Z" fill="#426F44" opacity=".24"/>
<path d="M28 124H292" stroke="#4058B8" stroke-width="2"/>
<circle cx="226" cy="76" r="20" fill="#fff" opacity=".65"/>
<rect x="44" y="142" width="232" height="58" rx="12" fill="#111"/>
<circle cx="88" cy="158" r="14" fill="#111"/>
<path d="M68 198C68 172 74 162 88 162C102 162 108 172 108 198" fill="#E7C695"/>
<path d="M58 198C58 170 70 156 88 156C106 156 118 170 118 198" fill="#4058B8"/>
<circle cx="156" cy="156" r="12" fill="#744729"/>
<path d="M139 198C139 174 145 164 156 164C167 164 173 174 173 198" fill="#E9C9A1"/>
<path d="M128 198C128 170 140 156 156 156C172 156 184 170 184 198" fill="#183B21"/>
<circle cx="226" cy="158" r="14" fill="#111"/>
<path d="M206 198C206 172 212 162 226 162C240 162 246 172 246 198" fill="#E8C69B"/>
<path d="M196 198C196 168 208 156 226 156C244 156 256 168 256 198" fill="#D7D2E6"/>
</svg>