<svg xmlns="http://www.w3.org/2000/svg" viewBox="0 0 320 240" fill="none">
<rect width="320" height="240" fill="#F6F4EF"/>
<rect x="14" y="14" width="292" height="212" rx="2" fill="#fff" stroke="#111" stroke-width="3"/>
<rect x="28" y="28" width="264" height="84" fill="#F4E7CF"/>
<path d="M28 88L60 92L94 70L126 84L160 60L210 96L248 78L292 104V112H28V88Z" fill="#4058B8" opacity=".18"/>
<path d="M28 112H292" stroke="#183B21" stroke-width="2"/>
<rect x="48" y="134" width="224" height="66" rx="12" fill="#EEE8DC"/>
<circle cx="94" cy="150" r="12" fill="#6D432A"/>
<path d="M78 198C78 174 83 162 94 162C105 162 110 174 110 198" fill="#E5C08C"/>
<path d="M66 198C66 168 78 154 94 154C110 154 122 168 122 198" fill="#183B21"/>
<circle cx="158" cy="152" r="12" fill="#111"/>
<path d="M142 198C142 174 147 164 158 164C169 164 174 174 174 198" fill="#E8C59A"/>
<path d="M130 198C130 168 142 156 158 156C174 156 186 168 186 198" fill="#4058B8"/>
<circle cx="220" cy="150" r="11" fill="#A36A46"/>
<path d="M205 198C205 176 210 165 220 165C230 165 235 176 235 198" fill="#EBCDA5"/>
<path d="M194 198C194 171 205 158 220 158C235 158 246 171 246 198" fill="#2F312E"/>
<rect x="58" y="208" width="76" height="4" fill="#111" opacity=".18"/>
</svg>